<svg width="25" height="25" viewBox="0 0 25 25" fill="none" xmlns="http://www.w3.org/2000/svg">
  <path
    d="M12.25 1C11.8524 1 11.4596 1.02092 11.0726 1.06173C10.2331 1.15027 9.66915 1.93616 9.71526 2.7969L9.75674 3.57118C9.84077 5.13973 8.03931 6.04246 6.87609 5.0147L6.28316 4.49081C5.64814 3.92975 4.70042 3.90113 4.11591 4.51679C3.62604 5.03276 3.18283 5.59519 2.79321 6.19699C2.3318 6.90967 2.55996 7.84525 3.22819 8.35925L3.99579 8.9497C5.20588 9.8805 4.75736 11.8362 3.26841 12.1213L2.34266 12.2986C1.51828 12.4564 0.90614 13.1945 1.01189 14.0443C1.10864 14.8217 1.28092 15.5751 1.52097 16.2964C1.79202 17.1109 2.66551 17.4972 3.47571 17.262L4.22686 17.044C5.70439 16.6152 6.96327 18.2065 6.24239 19.5918L5.8666 20.3139C5.47292 21.0705 5.65587 22.0196 6.37263 22.4647C6.96849 22.8347 7.60042 23.1502 8.26178 23.4043C9.04289 23.7044 9.88333 23.2709 10.2264 22.4939L10.6612 21.5094C11.2783 20.1117 13.2217 20.1117 13.8388 21.5094L14.2736 22.4939C14.6167 23.2709 15.4571 23.7044 16.2382 23.4043C16.8996 23.1502 17.5315 22.8347 18.1274 22.4647C18.8441 22.0196 19.0271 21.0705 18.6335 20.314L18.2576 19.5917C17.5368 18.2063 18.7957 16.6151 20.2732 17.044L21.0243 17.262C21.8345 17.4972 22.708 17.1109 22.979 16.2964C23.2191 15.575 23.3914 14.8217 23.4881 14.0443C23.5939 13.1945 22.9817 12.4564 22.1574 12.2985L21.2315 12.1212C19.7426 11.836 19.2941 9.88034 20.5042 8.94957L21.2717 8.35924C21.94 7.84525 22.1682 6.90964 21.7068 6.19695C21.3172 5.59518 20.874 5.03278 20.3841 4.51684C19.7996 3.90115 18.8518 3.92979 18.2168 4.4909L17.624 5.0147C16.4609 6.0425 14.6594 5.13985 14.7433 3.57129L14.7848 2.79684C14.8309 1.93613 14.267 1.15028 13.4274 1.06174C13.0404 1.02092 12.6476 1 12.25 1Z"
    stroke="white" stroke-width="2" />
  <path
    d="M16.1716 12.5708C16.1716 14.7829 14.4158 16.5761 12.25 16.5761C10.0841 16.5761 8.32838 14.7829 8.32838 12.5708C8.32838 10.3587 10.0841 8.56552 12.25 8.56552C14.4158 8.56552 16.1716 10.3587 16.1716 12.5708Z"
    stroke="currentColor" stroke-width="2" />
</svg>